<svg xmlns="http://www.w3.org/2000/svg" width="18" height="18" viewBox="0 0 18 18">
    <path fill="#000" fill-rule="nonzero" d="M12.605 1.915V.766c0-.423.332-.766.741-.766.41 0 .742.343.742.766v1.149h3.17c.41 0 .742.343.742.766v14.553a.754.754 0 0 1-.741.766H.74A.754.754 0 0 1 0 17.234V2.681c0-.423.332-.766.741-.766h2.966V.766C3.707.343 4.04 0 4.45 0s.741.343.741.766v1.149h2.966V.766c0-.423.332-.766.741-.766.41 0 .742.343.742.766v1.149h2.966zm0 1.532H9.639v1.016a.754.754 0 0 1-.742.766.754.754 0 0 1-.741-.766V3.447H5.19v1.016a.754.754 0 0 1-.741.766.754.754 0 0 1-.742-.766V3.447H1.483v13.021h15.034V3.447h-2.43v1.016a.754.754 0 0 1-.74.766.754.754 0 0 1-.742-.766V3.447zM8.527 8.809a.754.754 0 0 1-.742-.766c0-.423.332-.766.742-.766h1.112c.41 0 .741.343.741.766a.754.754 0 0 1-.741.766H8.527zm4.448 0a.754.754 0 0 1-.741-.766c0-.423.332-.766.741-.766h1.113c.41 0 .741.343.741.766a.754.754 0 0 1-.741.766h-1.113zm-8.897 3.063a.754.754 0 0 1-.741-.766c0-.423.332-.766.741-.766H5.19c.41 0 .742.343.742.766a.754.754 0 0 1-.742.766H4.078zm4.449 0a.754.754 0 0 1-.742-.766c0-.423.332-.766.742-.766h1.112c.41 0 .741.343.741.766a.754.754 0 0 1-.741.766H8.527zm4.448 0a.754.754 0 0 1-.741-.766c0-.423.332-.766.741-.766h1.113c.41 0 .741.343.741.766a.754.754 0 0 1-.741.766h-1.113zm-8.897 3.064a.754.754 0 0 1-.741-.766c0-.423.332-.766.741-.766H5.19c.41 0 .742.343.742.766a.754.754 0 0 1-.742.766H4.078zm4.449 0a.754.754 0 0 1-.742-.766c0-.423.332-.766.742-.766h1.112c.41 0 .741.343.741.766a.754.754 0 0 1-.741.766H8.527zm4.448 0a.754.754 0 0 1-.741-.766c0-.423.332-.766.741-.766h1.113c.41 0 .741.343.741.766a.754.754 0 0 1-.741.766h-1.113zM4.078 8.81a.754.754 0 0 1-.741-.766c0-.423.332-.766.741-.766h1.483c.41 0 .741.343.741.766a.754.754 0 0 1-.741.766H4.078z"/>
</svg>
