<svg xmlns="http://www.w3.org/2000/svg" width="171" height="35" viewBox="0 0 171 35">
    <g fill="none" fill-rule="evenodd">
        <path fill="#00CE86" d="M105 4h9.52c1.758 0 3.28.308 4.567.923 1.286.615 2.337 1.456 3.151 2.522.815 1.066 1.42 2.313 1.818 3.742.396 1.428.595 2.956.595 4.582 0 1.627-.199 3.154-.595 4.583-.397 1.428-1.003 2.675-1.818 3.741-.814 1.066-1.865 1.907-3.151 2.522-1.287.616-2.81.923-4.567.923H105V4zm4.02 20.176h3.956c1.565 0 2.846-.214 3.843-.643.997-.429 1.78-1.022 2.348-1.78.568-.758.954-1.649 1.158-2.67.204-1.023.305-2.127.305-3.314 0-1.187-.101-2.291-.305-3.313-.204-1.022-.59-1.912-1.158-2.67-.568-.759-1.35-1.352-2.348-1.78-.997-.43-2.278-.643-3.843-.643h-3.956v16.813zM135.38 28c-1.33 0-2.514-.225-3.554-.676a7.577 7.577 0 0 1-2.637-1.862c-.718-.792-1.265-1.737-1.64-2.836-.376-1.099-.563-2.307-.563-3.626 0-1.297.187-2.494.563-3.593.375-1.1.922-2.044 1.64-2.836a7.577 7.577 0 0 1 2.637-1.862c1.04-.45 2.225-.676 3.554-.676 1.33 0 2.514.225 3.554.676a7.577 7.577 0 0 1 2.637 1.862c.718.792 1.265 1.737 1.64 2.836.375 1.099.563 2.296.563 3.593 0 1.319-.188 2.527-.563 3.626-.375 1.1-.922 2.044-1.64 2.836a7.577 7.577 0 0 1-2.637 1.862c-1.04.45-2.225.676-3.554.676zm0-2.967c.815 0 1.522-.176 2.123-.528a4.516 4.516 0 0 0 1.479-1.384c.386-.572.67-1.214.852-1.929a8.833 8.833 0 0 0 0-4.368 5.903 5.903 0 0 0-.852-1.928 4.585 4.585 0 0 0-1.48-1.369c-.6-.351-1.307-.527-2.122-.527s-1.522.176-2.123.527c-.6.352-1.093.808-1.48 1.369a5.903 5.903 0 0 0-.851 1.928 8.898 8.898 0 0 0 0 4.368c.182.715.466 1.357.852 1.929.386.571.879 1.033 1.48 1.384.6.352 1.307.528 2.122.528zm11.5-14.538h3.473v2.373h.097c.279-.417.579-.802.9-1.154.322-.351.681-.648 1.078-.89a5.376 5.376 0 0 1 1.367-.577c.514-.143 1.104-.214 1.769-.214 1.007 0 1.945.23 2.814.692.868.462 1.484 1.176 1.849 2.143.622-.879 1.34-1.571 2.155-2.077.815-.505 1.833-.758 3.055-.758 1.758 0 3.125.44 4.1 1.319.976.879 1.464 2.351 1.464 4.417v11.77h-3.666v-9.957c0-.68-.022-1.302-.065-1.862-.043-.56-.166-1.044-.37-1.45a2.13 2.13 0 0 0-.916-.94c-.408-.22-.965-.33-1.673-.33-1.243 0-2.144.396-2.701 1.187-.558.791-.836 1.912-.836 3.362v9.99h-3.667V16.592c0-1.186-.209-2.082-.627-2.686-.418-.605-1.184-.907-2.3-.907-.471 0-.927.099-1.366.297a3.41 3.41 0 0 0-1.158.857c-.332.373-.6.835-.804 1.384-.204.55-.306 1.176-.306 1.88v10.12h-3.666V10.495z"/>
        <path fill="#00CE86" fill-rule="nonzero" d="M14.746 14.761l-4.722 18.324a1.35 1.35 0 0 1-2.614 0L2.688 14.76C-.305 11.519-.233 6.45 2.901 3.294a8.188 8.188 0 0 1 11.632 0c3.135 3.156 3.206 8.225.213 11.467zm-6.029 14.58l4.045-15.696.21-.212a6.103 6.103 0 0 0 0-8.588 5.988 5.988 0 0 0-8.51 0 6.103 6.103 0 0 0 0 8.588l.21.212 4.045 15.697z"/>
        <path fill="#FFF" d="M41 4h2.19v12.908L56.554 4h2.963l-10.273 9.916L60 28h-2.834l-9.564-12.504-4.412 4.269V28H41V4zm23 0h2v3h-2V4zm0 7h2v17h-2V11zm6 0h2.218l4.37 14.562h.066L80.824 11h2.351l4.171 14.562h.066L91.782 11H94l-5.495 17H86.22l-4.204-14.298h-.067L77.78 28h-2.285L70 11zm27-7h2v3h-2V4zm0 7h2v17h-2V11z"/>
    </g>
</svg>
